<svg xmlns="http://www.w3.org/2000/svg" viewBox="0 0 1440 320" preserveAspectRatio="none" role="img" aria-label="Manhattan skyline silhouette">
  <title>Manhattan skyline</title>
  <g fill="#1C1C1C">
    <rect x="2" y="265.8" width="28" height="54.2"/>
    <rect x="38" y="238.9" width="11" height="81.1"/>
    <rect x="57" y="266.6" width="24" height="53.4"/>
    <rect x="81" y="282.2" width="10" height="37.8"/>
    <rect x="96" y="242.7" width="8" height="77.3"/>
    <rect x="112" y="263.3" width="34" height="56.7"/>
    <rect x="148" y="284.3" width="24" height="35.7"/>
    <rect x="153.3" y="265.8" width="13.4" height="13.0"/>
    <rect x="174" y="239.3" width="11" height="80.7"/>
    <rect x="185" y="239.7" width="10" height="80.3"/>
    <rect x="198" y="274.4" width="16" height="45.6"/>
    <rect x="214" y="279.8" width="24" height="40.2"/>
    <rect x="239" y="280.7" width="10" height="39.3"/>
    <rect x="254" y="232.4" width="9" height="87.6"/>
    <rect x="268" y="280.5" width="34" height="39.5"/>
    <rect x="304" y="247.6" width="34" height="72.4"/>
    <rect x="340" y="266.1" width="16" height="53.9"/>
    <rect x="343.5" y="256.6" width="9.0" height="11.0"/>
    <rect x="364" y="231.8" width="20" height="88.2"/>
    <rect x="384" y="186.4" width="10" height="133.6"/>
    <rect x="396" y="200.0" width="9" height="120.0"/>
    <rect x="408" y="183.3" width="11" height="136.7"/>
    <rect x="419" y="231.6" width="28" height="88.4"/>
    <rect x="455" y="239.6" width="18" height="80.4"/>
    <rect x="459.0" y="226.5" width="10.1" height="8.4"/>
    <rect x="478" y="246.3" width="28" height="73.7"/>
    <rect x="506" y="196.3" width="18" height="123.7"/>
    <rect x="548" y="84" width="42" height="236"/>
    <rect x="554" y="52" width="30" height="32"/>
    <rect x="560" y="28" width="18" height="24"/>
    <rect x="567.3" y="6" width="3.4" height="24"/>
    <rect x="592" y="193.6" width="20" height="126.4"/>
    <rect x="596.4" y="184.1" width="11.2" height="8.1"/>
    <rect x="615" y="191.1" width="16" height="128.9"/>
    <rect x="660" y="114" width="30" height="206"/>
    <rect x="663" y="90" width="24" height="24"/>
    <rect x="667" y="72" width="16" height="18"/>
    <rect x="673.5" y="24" width="3" height="50"/>
    <rect x="696" y="200.8" width="34" height="119.2"/>
    <rect x="703.5" y="192.7" width="19.0" height="20.6"/>
    <rect x="731" y="229.2" width="24" height="90.8"/>
    <rect x="760" y="250.1" width="10" height="69.9"/>
    <rect x="773" y="164.8" width="8" height="155.2"/>
    <rect x="781" y="201.1" width="10" height="118.9"/>
    <rect x="791" y="247.4" width="10" height="72.6"/>
    <rect x="802" y="193.5" width="10" height="126.5"/>
    <rect x="820" y="230.3" width="10" height="89.7"/>
    <rect x="830" y="260.8" width="24" height="59.2"/>
    <rect x="862" y="251.8" width="20" height="68.2"/>
    <rect x="866.4" y="237.9" width="11.2" height="17.6"/>
    <rect x="884" y="270.1" width="24" height="49.9"/>
    <rect x="911" y="217.1" width="11" height="102.9"/>
    <rect x="925" y="248.6" width="16" height="71.4"/>
    <rect x="942" y="241.2" width="34" height="78.8"/>
    <rect x="978" y="242.4" width="13" height="77.6"/>
    <rect x="999" y="245.8" width="18" height="74.2"/>
    <rect x="1025" y="245.2" width="16" height="74.8"/>
    <rect x="1041" y="186.3" width="11" height="133.7"/>
    <rect x="1055" y="178.7" width="10" height="141.3"/>
    <rect x="1073" y="227.3" width="34" height="92.7"/>
    <polygon points="1112,320 1116,88 1144,88 1148,320"/>
    <rect x="1128.5" y="28" width="3" height="62"/>
    <rect x="1152" y="169.1" width="24" height="150.9"/>
    <rect x="1157.3" y="159.7" width="13.4" height="19.5"/>
    <rect x="1181" y="228.4" width="20" height="91.6"/>
    <rect x="1209" y="226.5" width="28" height="93.5"/>
    <rect x="1242" y="177.9" width="12" height="142.1"/>
    <rect x="1259" y="245.6" width="34" height="74.4"/>
    <rect x="1295" y="245.5" width="16" height="74.5"/>
    <rect x="1298.5" y="232.5" width="9.0" height="20.3"/>
    <rect x="1311" y="252.5" width="18" height="67.5"/>
    <rect x="1315.0" y="235.2" width="10.1" height="13.0"/>
    <rect x="1332" y="255.0" width="16" height="65.0"/>
    <rect x="1353" y="287.0" width="13" height="33.0"/>
    <rect x="1366" y="282.3" width="28" height="37.7"/>
    <rect x="1402" y="289.0" width="18" height="31.0"/>
    <rect x="1406.0" y="278.5" width="10.1" height="8.2"/>
    <rect x="1420" y="278.2" width="28" height="41.8"/>
    <rect x="1426.2" y="256.3" width="15.7" height="15.0"/>
  </g>
</svg>
